<svg xmlns="http://www.w3.org/2000/svg" xmlns:xlink="http://www.w3.org/1999/xlink" viewBox="0 0 240.03 271.28"><defs><style>.cls-1{fill:url(#Безымянный_градиент);}.cls-2{fill:url(#Безымянный_градиент_2);}.cls-3{fill:url(#Безымянный_градиент_3);}.cls-4{opacity:0.2;}.cls-5{fill:#fff;}</style><linearGradient id="Безымянный_градиент" x1="393.43" y1="-7.73" x2="393.43" y2="185.54" gradientTransform="matrix(1, 0, 0, -1, -273.41, 264.19)" gradientUnits="userSpaceOnUse"><stop offset="0" stop-color="#eda000"/><stop offset="1" stop-color="#ede481"/></linearGradient><linearGradient id="Безымянный_градиент_2" x1="369.4" y1="62.18" x2="369.4" y2="252.99" gradientTransform="matrix(1, 0, 0, -1, -273.41, 264.19)" gradientUnits="userSpaceOnUse"><stop offset="0" stop-color="#e68c00"/><stop offset="1" stop-color="#ede481"/></linearGradient><linearGradient id="Безымянный_градиент_3" x1="324.85" y1="85.3" x2="324.85" y2="311.18" gradientTransform="matrix(1, 0, 0, -1, -273.41, 264.19)" gradientUnits="userSpaceOnUse"><stop offset="0" stop-color="#e68200"/><stop offset="1" stop-color="#ede481"/></linearGradient></defs><title>amberlogo</title><g id="Слой_2" data-name="Слой 2"><g id="Слой_1-2" data-name="Слой 1"><path class="cls-1" d="M240,135.4v.33a49.7,49.7,0,0,1-24,42.77L76.33,263.88C42.91,284.31,0,260,0,221.09c0-39.72,25.08-48.91,25.08-85.58C25,99,0,89.81,0,50.18,0,11.32,42.91-13,76.33,7.39L216,92.76A49.69,49.69,0,0,1,240,135.4Z"/><path class="cls-2" d="M.5,211.92C4,179.68,25.08,169.17,25.08,135.51,25,99,0,89.81,0,50.18,0,11.32,42.91-13,76.33,7.39L191.9,78C196.42,162.57,23.91,121.66.5,211.92Z"/><path class="cls-3" d="M4.3,195.08c7.16-20.43,20.78-32.53,20.78-59.57C25,99,0,89.81,0,50.18,0,11.32,42.91-13,76.33,7.39L93.08,17.63C134.85,96.17,31.28,139.92,4.3,195.08Z"/><g class="cls-4"><path class="cls-5" d="M216,92.76,76.33,7.39C42.91-13,0,11.32,0,50.17,0,89.8,25,99,25.1,135.5,25.1,172.17,0,181.36,0,221.08c0,38.85,42.89,63.22,76.31,42.79L216,178.5a49.7,49.7,0,0,0,24-42.77v-.33A49.69,49.69,0,0,0,216,92.76Zm5.61,43.11a31.5,31.5,0,0,1-15.2,26.95L66.74,248.19a31.86,31.86,0,0,1-48.33-27.1c0-15.69,4.76-24.67,10.77-36,6.68-12.61,14.24-26.9,14.3-49.29v-.25c-.06-22.39-7.62-36.68-14.3-49.29-6-11.38-10.77-20.35-10.77-36a31.86,31.86,0,0,1,48.33-27.1l139.7,85.37a31.5,31.5,0,0,1,15.2,27Z"/></g></g></g></svg>