<?xml version="1.0" encoding="utf-8"?>
<!-- Generator: Adobe Illustrator 22.1.0, SVG Export Plug-In . SVG Version: 6.00 Build 0)  -->
<svg version="1.1" id="Слой_1" xmlns="http://www.w3.org/2000/svg" xmlns:xlink="http://www.w3.org/1999/xlink" x="0px" y="0px"
	 width="451px" height="451px" viewBox="0 0 451 451" style="enable-background:new 0 0 451 451;" xml:space="preserve">
<g>
	<path d="M-1206.7-332.3C-1206.7-332.3-1206.7-332.3-1206.7-332.3l-357.5-0.3c-5.4,0-9.9-4.4-9.9-9.9v-338.6c0-5.5,4.4-9.9,9.9-9.9
		s9.9,4.4,9.9,9.9v328.7l347.6,0.3c5.5,0,9.9,4.4,9.9,9.9C-1196.8-336.8-1201.2-332.3-1206.7-332.3z"/>
	<path d="M-1486.4-402.6c-5.5,0-9.9-4.4-9.9-9.9v-68.4c0-5.5,4.4-9.9,9.9-9.9c5.5,0,9.9,4.4,9.9,9.9v68.4
		C-1476.6-407.1-1481-402.6-1486.4-402.6z"/>
	<path d="M-1254.6-402.6c-5.5,0-9.9-4.4-9.9-9.9v-268.6c0-5.5,4.4-9.9,9.9-9.9c5.5,0,9.9,4.4,9.9,9.9v268.6
		C-1244.8-407.1-1249.2-402.6-1254.6-402.6z"/>
	<path d="M-1331.5-402.6c-5.5,0-9.9-4.4-9.9-9.9V-561c0-5.5,4.4-9.9,9.9-9.9c5.5,0,9.9,4.4,9.9,9.9v148.5
		C-1321.6-407.1-1326-402.6-1331.5-402.6z"/>
	<path d="M-1408.9-402.6c-5.5,0-9.9-4.4-9.9-9.9V-614c0-5.5,4.4-9.9,9.9-9.9c5.5,0,9.9,4.4,9.9,9.9v201.5
		C-1399.1-407.1-1403.5-402.6-1408.9-402.6z"/>
</g>
<g>
	<path d="M235,230.7H132.6c-0.6,0-1-0.4-1-1v-96.7c0-0.6,0.4-1,1-1H235c0.6,0,1,0.4,1,1v96.7C236,230.2,235.5,230.7,235,230.7z
		 M151.3,210.9h64.9v-59.2h-64.9V210.9z"/>
	<path d="M226.1,309.7h-84.6c-5.5,0-9.9-4.4-9.9-9.9s4.4-9.9,9.9-9.9h84.6c5.5,0,9.9,4.4,9.9,9.9S231.6,309.7,226.1,309.7z"/>
	<path d="M226.1,270.2h-84.6c-5.5,0-9.9-4.4-9.9-9.9c0-5.5,4.4-9.9,9.9-9.9h84.6c5.5,0,9.9,4.4,9.9,9.9
		C236,265.7,231.6,270.2,226.1,270.2z"/>
	<path d="M358,309.7h-84.6c-5.5,0-9.9-4.4-9.9-9.9s4.4-9.9,9.9-9.9H358c5.5,0,9.9,4.4,9.9,9.9S363.5,309.7,358,309.7z"/>
	<path d="M358,270.2h-84.6c-5.5,0-9.9-4.4-9.9-9.9c0-5.5,4.4-9.9,9.9-9.9H358c5.5,0,9.9,4.4,9.9,9.9
		C367.9,265.7,363.5,270.2,358,270.2z"/>
	<path d="M358,230.7h-84.6c-5.5,0-9.9-4.4-9.9-9.9c0-5.5,4.4-9.9,9.9-9.9H358c5.5,0,9.9,4.4,9.9,9.9
		C367.9,226.2,363.5,230.7,358,230.7z"/>
	<path d="M358,191.2h-84.6c-5.5,0-9.9-4.4-9.9-9.9c0-5.5,4.4-9.9,9.9-9.9H358c5.5,0,9.9,4.4,9.9,9.9
		C367.9,186.8,363.5,191.2,358,191.2z"/>
	<path d="M358,151.7h-84.6c-5.5,0-9.9-4.4-9.9-9.9c0-5.5,4.4-9.9,9.9-9.9H358c5.5,0,9.9,4.4,9.9,9.9
		C367.9,147.3,363.5,151.7,358,151.7z"/>
	<path d="M430.2,372.8h-362c-0.6,0-1-0.4-1-1V78.6c0-0.6,0.4-1,1-1h362c0.6,0,1,0.4,1,1v293.2C431.2,372.4,430.7,372.8,430.2,372.8z
		 M86.9,353.1h324.5V97.4H86.9V353.1z"/>
	<path d="M77,372.8H62.2c-23.4,0-42.5-19-42.5-42.5V128c0-5.5,4.4-9.9,9.9-9.9H77c5.5,0,9.9,4.4,9.9,9.9c0,5.5-4.4,9.9-9.9,9.9H39.5
		v192.5c0,12.3,10.4,22.7,22.7,22.7H77c5.5,0,9.9,4.4,9.9,9.9S82.5,372.8,77,372.8z"/>
</g>
</svg>
