<?xml version="1.0" encoding="utf-8"?>
<!-- Generator: Adobe Illustrator 22.1.0, SVG Export Plug-In . SVG Version: 6.00 Build 0)  -->
<svg version="1.1" id="Слой_1" xmlns="http://www.w3.org/2000/svg" xmlns:xlink="http://www.w3.org/1999/xlink" x="0px" y="0px"
	 width="451px" height="451px" viewBox="0 0 451 451" style="enable-background:new 0 0 451 451;" xml:space="preserve">
<g>
	<path d="M404.2,404.6C404.2,404.6,404.2,404.6,404.2,404.6l-357.5-0.3c-5.4,0-9.9-4.4-9.9-9.9V55.8c0-5.5,4.4-9.9,9.9-9.9
		s9.9,4.4,9.9,9.9v328.7l347.6,0.3c5.5,0,9.9,4.4,9.9,9.9C414,400.1,409.6,404.6,404.2,404.6z"/>
	<path d="M124.4,334.3c-5.5,0-9.9-4.4-9.9-9.9V256c0-5.5,4.4-9.9,9.9-9.9c5.5,0,9.9,4.4,9.9,9.9v68.4
		C134.3,329.8,129.9,334.3,124.4,334.3z"/>
	<path d="M356.2,334.3c-5.5,0-9.9-4.4-9.9-9.9V55.8c0-5.5,4.4-9.9,9.9-9.9c5.5,0,9.9,4.4,9.9,9.9v268.6
		C366.1,329.8,361.7,334.3,356.2,334.3z"/>
	<path d="M279.4,334.3c-5.5,0-9.9-4.4-9.9-9.9V175.9c0-5.5,4.4-9.9,9.9-9.9c5.5,0,9.9,4.4,9.9,9.9v148.5
		C289.3,329.8,284.9,334.3,279.4,334.3z"/>
	<path d="M201.9,334.3c-5.5,0-9.9-4.4-9.9-9.9V122.9c0-5.5,4.4-9.9,9.9-9.9c5.5,0,9.9,4.4,9.9,9.9v201.5
		C211.8,329.8,207.4,334.3,201.9,334.3z"/>
</g>
</svg>
