<?xml version="1.0" encoding="utf-8"?>
<!-- Generator: Adobe Illustrator 22.1.0, SVG Export Plug-In . SVG Version: 6.00 Build 0)  -->
<svg version="1.1" id="Слой_1" xmlns="http://www.w3.org/2000/svg" xmlns:xlink="http://www.w3.org/1999/xlink" x="0px" y="0px"
	 width="451px" height="451px" viewBox="0 0 451 451" style="enable-background:new 0 0 451 451;" xml:space="preserve">
<g>
	<path d="M-1206.7-332.3L-1206.7-332.3l-357.5-0.3c-5.4,0-9.9-4.4-9.9-9.9v-338.6c0-5.5,4.4-9.9,9.9-9.9s9.9,4.4,9.9,9.9v328.7
		l347.6,0.3c5.5,0,9.9,4.4,9.9,9.9C-1196.8-336.8-1201.2-332.3-1206.7-332.3z"/>
	<path d="M-1486.4-402.6c-5.5,0-9.9-4.4-9.9-9.9v-68.4c0-5.5,4.4-9.9,9.9-9.9s9.9,4.4,9.9,9.9v68.4
		C-1476.6-407.1-1481-402.6-1486.4-402.6z"/>
	<path d="M-1254.6-402.6c-5.5,0-9.9-4.4-9.9-9.9v-268.6c0-5.5,4.4-9.9,9.9-9.9s9.9,4.4,9.9,9.9v268.6
		C-1244.8-407.1-1249.2-402.6-1254.6-402.6z"/>
	<path d="M-1331.5-402.6c-5.5,0-9.9-4.4-9.9-9.9V-561c0-5.5,4.4-9.9,9.9-9.9s9.9,4.4,9.9,9.9v148.5
		C-1321.6-407.1-1326-402.6-1331.5-402.6z"/>
	<path d="M-1408.9-402.6c-5.5,0-9.9-4.4-9.9-9.9V-614c0-5.5,4.4-9.9,9.9-9.9s9.9,4.4,9.9,9.9v201.5
		C-1399.1-407.1-1403.5-402.6-1408.9-402.6z"/>
</g>
<path d="M418.8,175L275.7,31.8c-3.9-3.9-10.1-3.9-14,0c-3.9,3.9-3.9,10.1,0,14l10.8,10.9l-170,169.9c-0.3,0.2-0.6,0.5-0.9,0.7
	l-47.4,47.4c-16.8,16.8-25.1,38.8-25.1,60.8c0,22,8.4,44.1,25.1,60.9c16.8,16.7,38.8,25.1,60.8,25.1c22,0,44.1-8.4,60.8-25.2
	l218.2-218.1l10.7,10.8c1.9,1.9,4.5,2.9,7,2.9c2.6,0,5.1-1,7-2.9C422.7,185.1,422.7,178.9,418.8,175z M161.9,381.5
	c-12.4,12.8-29,20-46.7,20.1c-3.5,0.1-6.9-0.2-10.3-0.6c-13.4-2.1-26.3-8.2-36.6-18.5c0,0,0,0,0,0c-5.6-5.7-10.1-12.1-13.2-19
	c-0.5-1-0.9-2-1.3-3c-1.2-3-2.2-6.1-2.9-9.2c-5.3-21.8,0.5-45.7,17.5-62.6l42.8-42.8l133.1,53.3L161.9,381.5z M260.2,284.2
	l-133.9-53.5L286.4,70.6l93.7,93.7L260.2,284.2z"/>
<g>
	<path d="M-836-506.2h-102.4c-0.6,0-1-0.4-1-1V-604c0-0.6,0.4-1,1-1H-836c0.6,0,1,0.4,1,1v96.7C-835-506.7-835.5-506.2-836-506.2z
		 M-919.7-526h64.9v-59.2h-64.9V-526z"/>
	<path d="M-844.9-427.2h-84.6c-5.5,0-9.9-4.4-9.9-9.9s4.4-9.9,9.9-9.9h84.6c5.5,0,9.9,4.4,9.9,9.9
		C-835-431.7-839.4-427.2-844.9-427.2z"/>
	<path d="M-844.9-466.7h-84.6c-5.5,0-9.9-4.4-9.9-9.9s4.4-9.9,9.9-9.9h84.6c5.5,0,9.9,4.4,9.9,9.9S-839.4-466.7-844.9-466.7z"/>
	<path d="M-713-427.2h-84.6c-5.5,0-9.9-4.4-9.9-9.9s4.4-9.9,9.9-9.9h84.6c5.5,0,9.9,4.4,9.9,9.9C-703.1-431.7-707.5-427.2-713-427.2
		z"/>
	<path d="M-713-466.7h-84.6c-5.5,0-9.9-4.4-9.9-9.9s4.4-9.9,9.9-9.9h84.6c5.5,0,9.9,4.4,9.9,9.9S-707.5-466.7-713-466.7z"/>
	<path d="M-713-506.2h-84.6c-5.5,0-9.9-4.4-9.9-9.9c0-5.5,4.4-9.9,9.9-9.9h84.6c5.5,0,9.9,4.4,9.9,9.9
		C-703.1-510.7-707.5-506.2-713-506.2z"/>
	<path d="M-713-545.7h-84.6c-5.5,0-9.9-4.4-9.9-9.9s4.4-9.9,9.9-9.9h84.6c5.5,0,9.9,4.4,9.9,9.9S-707.5-545.7-713-545.7z"/>
	<path d="M-713-585.2h-84.6c-5.5,0-9.9-4.4-9.9-9.9s4.4-9.9,9.9-9.9h84.6c5.5,0,9.9,4.4,9.9,9.9S-707.5-585.2-713-585.2z"/>
	<path d="M-640.8-364.1h-362c-0.6,0-1-0.4-1-1v-293.2c0-0.6,0.4-1,1-1h362c0.6,0,1,0.4,1,1v293.2
		C-639.8-364.5-640.3-364.1-640.8-364.1z M-984.1-383.8h324.5v-255.7h-324.5V-383.8z"/>
	<path d="M-994-364.1h-14.8c-23.4,0-42.5-19-42.5-42.5V-609c0-5.5,4.4-9.9,9.9-9.9h47.4c5.5,0,9.9,4.4,9.9,9.9s-4.4,9.9-9.9,9.9
		h-37.5v192.5c0,12.3,10.4,22.7,22.7,22.7h14.8c5.5,0,9.9,4.4,9.9,9.9C-984.1-368.5-988.5-364.1-994-364.1z"/>
</g>
</svg>
