<?xml version="1.0" standalone="no"?>
<!DOCTYPE svg PUBLIC "-//W3C//DTD SVG 20010904//EN"
 "http://www.w3.org/TR/2001/REC-SVG-20010904/DTD/svg10.dtd">
<svg version="1.0" xmlns="http://www.w3.org/2000/svg"
 width="700.000000pt" height="700.000000pt" viewBox="0 0 700.000000 700.000000"
 preserveAspectRatio="xMidYMid meet">
<metadata>
Created by potrace 1.11, written by Peter Selinger 2001-2013
</metadata>
<g transform="translate(0.000000,700.000000) scale(0.100000,-0.100000)"
fill="#000000" stroke="none">
<path d="M0 3500 l0 -3500 3500 0 3500 0 0 3500 0 3500 -3500 0 -3500 0 0
-3500z m5311 2401 c4 -145 0 -3603 -4 -3607 -4 -4 -2273 -8 -2404 -4 -10 0
-13 128 -13 605 0 333 -3 605 -7 606 -5 1 -276 2 -603 4 -327 1 -598 3 -601 4
-4 1 -5 2415 -1 2417 1 0 819 0 1817 0 l1815 0 1 -25z m-2473 -3621 l52 0 0
-604 c0 -474 -3 -605 -12 -608 -7 -2 -281 -4 -608 -4 l-595 1 0 605 0 605 70
5 c58 4 272 4 1093 0z"/>
<path d="M2890 4107 l0 -603 603 1 602 0 0 603 1 602 -603 0 -603 0 0 -603z"/>
</g>
</svg>
