<svg xmlns="http://www.w3.org/2000/svg" width="46" height="35" viewBox="0 0 46 35">
  <metadata><?xpacket begin="﻿" id="W5M0MpCehiHzreSzNTczkc9d"?>
<x:xmpmeta xmlns:x="adobe:ns:meta/" x:xmptk="Adobe XMP Core 5.6-c138 79.159824, 2016/09/14-01:09:01        ">
   <rdf:RDF xmlns:rdf="http://www.w3.org/1999/02/22-rdf-syntax-ns#">
      <rdf:Description rdf:about=""/>
   </rdf:RDF>
</x:xmpmeta>
                                                                                                    
                                                                                                    
                                                                                                    
                                                                                                    
                                                                                                    
                                                                                                    
                                                                                                    
                                                                                                    
                                                                                                    
                                                                                                    
                                                                                                    
                                                                                                    
                                                                                                    
                                                                                                    
                                                                                                    
                                                                                                    
                                                                                                    
                                                                                                    
                                                                                                    
                                                                                                    
                           
<?xpacket end="w"?></metadata>
<defs>
    <style>
      .cls-1 {
        fill-rule: evenodd;
      }
    </style>
  </defs>
  <path class="cls-1" d="M1554,1419.36v13.96a2.506,2.506,0,0,0,2.4,2.62h2.47a0.96,0.96,0,0,0,0-1.92h-2.4a0.643,0.643,0,0,1-.51-0.7v-13l13.02-10.52,13.08,10.52v13.07a0.658,0.658,0,0,1-.51.7H1567.4a0.955,0.955,0,0,0,0,1.91h14.15a2.5,2.5,0,0,0,2.4-2.61v-14.03l-14.97-11.98Zm37.6-.25L1568.98,1401l-22.62,18.11a0.934,0.934,0,0,0-.13,1.34,0.915,0.915,0,0,0,1.33.12l21.48-17.15,21.49,17.15a0.945,0.945,0,0,0,.56.19,0.96,0.96,0,0,0,.76-0.38A0.937,0.937,0,0,0,1591.6,1419.11Z" transform="translate(-1546 -1401)"/>
</svg>
