<svg id="ID_CLEANED" data-name="ID CLEANED" xmlns="http://www.w3.org/2000/svg" width="688" height="637" viewBox="0 0 688 637">
  <defs>
    <style>
      .cls-1 {
        fill: #2adcaa;
      }

      .cls-1, .cls-4, .cls-5 {
        fill-rule: evenodd;
      }

      .cls-2 {
        fill: #31d3ac;
      }

      .cls-3 {
        fill: #2addaa;
      }

      .cls-5 {
        fill: #fff;
      }
    </style>
  </defs>
  <g>
    <path id="Shape_1_copy_4" data-name="Shape 1 copy 4" class="cls-1" d="M2141.64,351.715s-56.12,24.619-98.86,82.639c-36.07,48.968-42.28,100.623-43.58,127.131-3.12,63.626,28.82,138.235,108.42,214.007,91.01,86.63,180.5,120.569,252.99,112.3s145.97-51.665,207.29-151.5c-101.58,165.391-236.06,160.042-412.44,15.89C1933.35,570.667,2141.64,351.715,2141.64,351.715Z" transform="translate(-1999 -252)"/>
    <circle id="Ellipse_4_copy_10" data-name="Ellipse 4 copy 10" class="cls-2" cx="80" cy="564.094" r="18"/>
    <circle id="Ellipse_4_copy_10-2" data-name="Ellipse 4 copy 10" class="cls-3" cx="608" cy="170.703" r="22"/>
    <path id="Ellipse_4_copy_10-3" data-name="Ellipse 4 copy 10" class="cls-1" d="M2555.01,254A47.922,47.922,0,1,1,2507,301.922,47.961,47.961,0,0,1,2555.01,254Z" transform="translate(-1999 -252)"/>
  </g>
  <g id="Group_1_copy" data-name="Group 1 copy">
    <path id="Shape_1_copy_4-2" data-name="Shape 1 copy 4" class="cls-4" d="M2424.56,365.652c-4.22-26.034-101.47-34.224-160.71-23.317-33.93,6.244-58.44,14.679-98.8,36.455-92.38,49.835-115.3,120.828-117.89,173.43s23.86,114.288,89.74,176.934c75.31,71.622,149.37,99.682,209.37,92.847s120.8-42.714,171.54-125.256c49.72-80.877,51.97-148.673,38.71-189.2-11.66-35.632-41.15-74.688-99.41-80.585-69.81-7.067-142.2,16.905-134.6,60.437,5.5,31.476,31.67,27,76.54,21.9,7.6-.863,28.8.626,32.55,26.278,1.25,8.534-8.55,22.631-22.87,28.029-19.27,7.262-45.27,7.813-51.91,21.9-18.75,39.817,13.81,153.529-48.38,156.786-20.78,1.091-37.91-12.9-49.37-81.254-4.38-26.078-9.2-61.084-17.27-95.959-12.12-52.359-21.65-65.193-19.57-91.691,1.95-24.947,11.13-41.572,53.66-65.694,14.77-8.378,42.32-17.425,66.14-21.375C2385.29,379.147,2426.72,378.978,2424.56,365.652Z" transform="translate(-1999 -252)"/>
    <path id="Ellipse_4_copy_10-4" data-name="Ellipse 4 copy 10" class="cls-4" d="M2076.3,760.263a14.854,14.854,0,1,1-14.89,14.853A14.867,14.867,0,0,1,2076.3,760.263Z" transform="translate(-1999 -252)"/>
    <path id="Ellipse_4_copy_10-5" data-name="Ellipse 4 copy 10" class="cls-4" d="M2668.79,470.075a18.154,18.154,0,1,1-18.2,18.153A18.18,18.18,0,0,1,2668.79,470.075Z" transform="translate(-1999 -252)"/>
    <circle id="Ellipse_4_copy_10-6" data-name="Ellipse 4 copy 10" cx="508.145" cy="85.625" r="39.735"/>
  </g>
  <g id="Group_1_copy_2" data-name="Group 1 copy 2">
    <path id="Shape_1_copy_4-3" data-name="Shape 1 copy 4" class="cls-5" d="M2443.66,413.014c-3.94-24.249-94.77-31.878-150.1-21.719-31.69,5.817-54.58,13.672-92.28,33.955-86.28,46.418-107.69,112.543-110.1,161.536s22.28,106.454,83.81,164.8c70.34,66.711,139.51,92.846,195.55,86.48s112.82-39.785,160.22-116.666c46.43-75.333,48.53-138.476,36.15-176.224-10.89-33.188-38.44-69.565-92.85-75.058-65.2-6.58-132.81,15.746-125.71,56.3,5.14,29.316,29.58,25.151,71.48,20.394,7.1-.8,26.9.583,30.41,24.477,1.16,7.949-7.99,21.079-21.37,26.106-17.99,6.766-42.28,7.278-48.47,20.4-17.52,37.087,12.89,143-45.19,146.036-19.41,1.014-35.41-12.017-46.12-75.682-4.08-24.29-8.58-56.9-16.12-89.381-11.32-48.768-20.22-60.722-18.28-85.4,1.82-23.237,10.39-38.723,50.12-61.191,13.79-7.8,39.52-16.227,61.77-19.906C2406.98,425.583,2445.68,425.426,2443.66,413.014Z" transform="translate(-1999 -252)"/>
    <path id="Ellipse_4_copy_10-7" data-name="Ellipse 4 copy 10" class="cls-5" d="M2138.94,780.554a13.839,13.839,0,1,1-13.9,13.838A13.876,13.876,0,0,1,2138.94,780.554Z" transform="translate(-1999 -252)"/>
    <path id="Ellipse_4_copy_10-8" data-name="Ellipse 4 copy 10" class="cls-5" d="M2607,473.005a16.912,16.912,0,1,1-17,16.912A16.956,16.956,0,0,1,2607,473.005Z" transform="translate(-1999 -252)"/>
    <path id="Ellipse_4_copy_10-9" data-name="Ellipse 4 copy 10" class="cls-5" d="M2517.79,252a36.916,36.916,0,1,1-37.11,36.915A37.01,37.01,0,0,1,2517.79,252Z" transform="translate(-1999 -252)"/>
  </g>
</svg>
