<?xml version="1.0" standalone="no"?>
<!DOCTYPE svg PUBLIC "-//W3C//DTD SVG 20010904//EN"
 "http://www.w3.org/TR/2001/REC-SVG-20010904/DTD/svg10.dtd">
<svg version="1.0" xmlns="http://www.w3.org/2000/svg"
 width="256.000000pt" height="256.000000pt" viewBox="0 0 256.000000 256.000000"
 preserveAspectRatio="xMidYMid meet">
<metadata>
Created by potrace 1.11, written by Peter Selinger 2001-2013
</metadata>
<g transform="translate(0.000000,256.000000) scale(0.100000,-0.100000)"
fill="#000000" stroke="none">
<path d="M1940 2384 c-111 -56 -127 -206 -30 -287 97 -82 246 -18 267 114 10
66 -31 139 -97 173 -32 17 -107 16 -140 0z"/>
<path d="M1065 2223 c-155 -21 -285 -63 -438 -139 -132 -67 -205 -115 -283
-186 -135 -126 -219 -273 -259 -458 -21 -96 -14 -276 15 -365 57 -178 173
-352 344 -519 330 -319 672 -456 973 -389 86 19 216 79 299 138 246 176 479
565 523 872 9 67 7 214 -3 262 -45 205 -176 346 -369 397 -36 10 -96 13 -197
11 -128 -3 -155 -7 -229 -32 -141 -48 -206 -111 -206 -199 0 -61 17 -98 53
-117 24 -14 134 -18 247 -10 78 6 85 3 121 -35 50 -52 45 -109 -14 -162 -22
-19 -135 -62 -165 -62 -6 0 -30 -9 -53 -21 -63 -30 -70 -58 -79 -315 -3 -94
-8 -182 -10 -195 -13 -69 -19 -87 -38 -122 -50 -91 -173 -105 -234 -27 -47 59
-71 148 -123 453 -21 127 -48 266 -60 307 -11 41 -30 111 -42 155 -28 102 -30
234 -4 283 65 126 288 248 506 277 25 4 59 8 75 11 17 2 44 6 60 8 94 12 133
20 158 33 66 33 6 95 -121 124 -26 6 -56 13 -67 16 -26 6 -341 12 -380 6z"/>
<path d="M2372 1810 c-30 -28 -30 -86 0 -111 32 -28 82 -25 107 7 12 15 21 37
21 49 0 12 -9 34 -21 49 -26 33 -75 35 -107 6z"/>
<path d="M251 403 c-32 -27 -34 -61 -6 -89 30 -30 58 -31 85 -2 26 28 26 58 0
86 -25 27 -51 28 -79 5z"/>
</g>
</svg>
