<svg xmlns="http://www.w3.org/2000/svg" xmlns:xlink="http://www.w3.org/1999/xlink" viewBox="0 0 699.62 900.97"><defs><style>.cls-1{fill:url(#linear-gradient);}.cls-2{fill:url(#linear-gradient-2);}.cls-3{fill:url(#linear-gradient-3);}.cls-4{fill:url(#linear-gradient-4);}.cls-5{fill:#319b2e;}</style><linearGradient id="linear-gradient" x1="349.82" y1="-23.11" x2="349.82" y2="902.64" gradientUnits="userSpaceOnUse"><stop offset="0" stop-color="#6feecb"/><stop offset="1" stop-color="#515d9e"/></linearGradient><linearGradient id="linear-gradient-2" x1="349.81" y1="556.19" x2="349.81" y2="1077.96" gradientUnits="userSpaceOnUse"><stop offset="0" stop-color="#6fcdcb"/><stop offset="1" stop-color="#515d9e"/></linearGradient><linearGradient id="linear-gradient-3" x1="420.03" y1="296.4" x2="420.03" y2="817.09" gradientUnits="userSpaceOnUse"><stop offset="0" stop-color="#ffea79"/><stop offset="1" stop-color="#b15dbf"/></linearGradient><linearGradient id="linear-gradient-4" x1="309.52" y1="296.4" x2="309.52" y2="817.09" xlink:href="#linear-gradient-3"/></defs><title>avocado logo</title><g id="Layer_2" data-name="Layer 2"><g id="Layer_1-2" data-name="Layer 1"><path class="cls-1" d="M279.81,188A24.08,24.08,0,1,0,303.89,212,24.1,24.1,0,0,0,279.81,188Zm70-111A24.08,24.08,0,1,0,373.89,101,24.1,24.1,0,0,0,349.81,77Zm-70,111A24.08,24.08,0,1,0,303.89,212,24.1,24.1,0,0,0,279.81,188Zm70-111A24.08,24.08,0,1,0,373.89,101,24.1,24.1,0,0,0,349.81,77Zm244,268.42A380.49,380.49,0,0,1,499.2,156.06L492.45,119A145,145,0,0,0,349.81,0a149.24,149.24,0,0,0-16.73,1,145,145,0,0,0-125.9,118l-6.75,37.06c-.5,2.74-1,5.48-1.59,8.19a382.32,382.32,0,0,1-93.26,181.42A330.11,330.11,0,0,0,18.45,569.81q0,16.17,1.53,31.94A330.6,330.6,0,0,0,251.26,886.17q3.22,1,6.46,1.92a11,11,0,0,0,14.09-10.57V844.29a8.19,8.19,0,0,1,7.47-8.27l.53,0a8,8,0,0,1,8,8v38.52a15,15,0,0,0,12.73,14.84,336.45,336.45,0,0,0,49.2,3.61h1.87a335.44,335.44,0,0,0,47.44-3.62,15,15,0,0,0,12.76-14.86V844.29a8.19,8.19,0,0,1,7.47-8.27l.53,0a8,8,0,0,1,8,8v33.44a11,11,0,0,0,11,11,10.81,10.81,0,0,0,3.1-.45q3.45-1,6.89-2.07l2.77-.88c123.4-39.77,215.2-150,228-283.22q1.55-15.9,1.55-32.21A330.15,330.15,0,0,0,593.78,345.38ZM419.81,172A40.08,40.08,0,1,1,379.74,212,40.13,40.13,0,0,1,419.81,172Zm-70-111A40.08,40.08,0,1,1,309.74,101,40.13,40.13,0,0,1,349.81,61Zm-70,111A40.08,40.08,0,1,1,239.74,212,40.13,40.13,0,0,1,279.81,172ZM548.5,679.05l-.08.12a229.41,229.41,0,0,1-177,113.54,15,15,0,0,0-13.56,14.93v44a8.19,8.19,0,0,1-7.45,8.26,8,8,0,0,1-8.55-8V807.64a15,15,0,0,0-13.62-14.93A229.29,229.29,0,0,1,120.43,564.34c0-96.67,59.78-179.36,144.39-213.12a11,11,0,0,0,7-10.24V283.4a8.18,8.18,0,0,1,7.45-8.26,8,8,0,0,1,8.55,8v51.27a7,7,0,0,0,8.6,6.8,229.79,229.79,0,0,1,37.09-5.67,9,9,0,0,0,8.31-9V175.4a8.18,8.18,0,0,1,7.45-8.26,8,8,0,0,1,8.55,8V326.58a9,9,0,0,0,8.28,9,223,223,0,0,1,37.07,5.87,7,7,0,0,0,8.65-6.8V283.4a8.18,8.18,0,0,1,7.45-8.26,8,8,0,0,1,8.55,8v58.37a11,11,0,0,0,6.91,10.21C518.12,385.78,578.41,468,579.19,562.41A228.42,228.42,0,0,1,548.5,679.05ZM419.81,236.12A24.08,24.08,0,1,0,395.74,212,24.11,24.11,0,0,0,419.81,236.12Zm-70-111A24.08,24.08,0,1,0,325.74,101,24.11,24.11,0,0,0,349.81,125.12Zm-70,111A24.08,24.08,0,1,0,255.74,212,24.11,24.11,0,0,0,279.81,236.12ZM349.81,77A24.08,24.08,0,1,0,373.89,101,24.1,24.1,0,0,0,349.81,77Zm0,0A24.08,24.08,0,1,0,373.89,101,24.1,24.1,0,0,0,349.81,77Z"/><path class="cls-2" d="M699.62,601.91C686.73,735.15,575.93,845.28,451.58,885l-2.77.88q-3.44,1.08-6.89,2.07a10.81,10.81,0,0,1-3.1.45,11,11,0,0,1-11-11V844a8,8,0,0,0-8-8l-.53,0a8.19,8.19,0,0,0-7.47,8.27v38.19a15,15,0,0,1-12.76,14.86A335.44,335.44,0,0,1,351.61,901h-1.87a336.45,336.45,0,0,1-49.2-3.61,15,15,0,0,1-12.73-14.84V844a8,8,0,0,0-8-8l-.53,0a8.19,8.19,0,0,0-7.47,8.27v33.23a11,11,0,0,1-14.09,10.57q-3.24-.93-6.46-1.92C125.43,847.48,13,736.84,0,602a135.15,135.15,0,0,1,20-.25c67.26,4.1,115.59,57,128.69,72.92a229.46,229.46,0,0,0,179.52,118,15,15,0,0,1,13.62,14.93v44.27a8,8,0,0,0,8.55,8,8.19,8.19,0,0,0,7.45-8.26v-44a15,15,0,0,1,13.56-14.93,229.41,229.41,0,0,0,177-113.54l.08-.12c2.49-3.33,54.45-72,131.13-77.23A134.89,134.89,0,0,1,699.62,601.91Z"/><path class="cls-3" d="M426.81,598l-77-122.9m180.5,141.19L382.86,380.91a39,39,0,0,0-66.1,0l-13,20.71,46,73.46,77,122.9,48.87,78h21.58a39,39,0,0,0,33.05-59.71Z"/><path class="cls-4" d="M455.68,676H202.36a39,39,0,0,1-33.05-59.71L293.78,417.59l46,73.46L272.82,598h134Z"/><path class="cls-5" d="M175.94,174.78"/></g></g></svg>